<svg width="260" height="190" viewBox="0 0 260 190" fill="none" xmlns="http://www.w3.org/2000/svg">
<g clip-path="url(#clip0_6_162)">
<path d="M158.138 89.911C157.331 89.9097 156.555 89.6022 155.967 89.0506C155.379 88.499 155.022 87.7447 154.969 86.9402L154.497 79.7381C154.442 78.8969 154.724 78.0683 155.28 77.4345C155.836 76.8007 156.621 76.4137 157.463 76.3585L213.921 72.6633C215.717 72.5471 217.487 73.1485 218.84 74.3354C220.193 75.5224 221.019 77.1976 221.136 78.993C221.254 80.7884 220.654 82.557 219.467 83.9101C218.28 85.2633 216.605 86.0901 214.808 86.2091L158.351 89.904C158.279 89.9086 158.209 89.9109 158.138 89.911Z" fill="#7ACEFA"/>
<path d="M169.271 90.8395C168.448 90.8382 167.658 90.5188 167.066 89.9484C166.474 89.378 166.126 88.6008 166.094 87.7795L165.692 77.0224C165.676 76.6052 165.743 76.1891 165.888 75.7978C166.033 75.4065 166.254 75.0476 166.538 74.7416C166.823 74.4357 167.164 74.1886 167.544 74.0146C167.923 73.8407 168.334 73.7431 168.751 73.7276L215.178 71.9933C216.021 71.9619 216.842 72.2664 217.46 72.8398C218.078 73.4132 218.443 74.2086 218.475 75.0511L218.877 85.8082C218.893 86.2253 218.826 86.6414 218.681 87.0327C218.535 87.424 218.314 87.7829 218.03 88.0889C217.746 88.3948 217.404 88.6419 217.025 88.8159C216.645 88.9899 216.235 89.0874 215.818 89.103L169.391 90.8372C169.351 90.8388 169.31 90.8395 169.271 90.8395Z" fill="#2F2E41"/>
<path d="M223.675 190H216.454C215.61 189.999 214.802 189.664 214.206 189.068C213.61 188.472 213.274 187.664 213.273 186.821V126.667C213.274 125.824 213.61 125.017 214.206 124.421C214.802 123.825 215.61 123.49 216.454 123.489H223.675C224.519 123.49 225.327 123.825 225.923 124.421C226.519 125.017 226.855 125.824 226.856 126.667V186.821C226.855 187.664 226.519 188.472 225.923 189.068C225.327 189.664 224.519 189.999 223.675 190Z" fill="#2F2E41"/>
<path d="M205.543 190H198.322C197.478 189.999 196.67 189.664 196.074 189.068C195.478 188.472 195.142 187.664 195.141 186.821V126.667C195.142 125.824 195.478 125.017 196.074 124.421C196.67 123.825 197.478 123.49 198.322 123.489H205.543C206.387 123.49 207.195 123.825 207.791 124.421C208.387 125.017 208.723 125.824 208.724 126.667V186.821C208.723 187.664 208.387 188.472 207.791 189.068C207.195 189.664 206.387 189.999 205.543 190Z" fill="#2F2E41"/>
<path d="M212.707 60.711C226.489 60.711 237.661 49.5454 237.661 35.7719C237.661 21.9984 226.489 10.8327 212.707 10.8327C198.925 10.8327 187.753 21.9984 187.753 35.7719C187.753 49.5454 198.925 60.711 212.707 60.711Z" fill="white"/>
<path d="M199.2 44.287C198.397 44.0234 197.66 43.5911 197.039 43.0192C196.627 42.6108 196.309 42.1174 196.108 41.5735C195.907 41.0296 195.828 40.4483 195.875 39.8705C195.901 39.4588 196.022 39.0587 196.229 38.7014C196.435 38.3442 196.722 38.0395 197.065 37.8112C197.958 37.2391 199.151 37.2375 200.367 37.7727L200.321 28.0368L201.299 28.0321L201.353 39.4777L200.599 39.0037C199.725 38.455 198.476 38.0687 197.594 38.6345C197.376 38.784 197.195 38.9817 197.066 39.2123C196.937 39.4429 196.863 39.7001 196.849 39.964C196.816 40.3945 196.877 40.827 197.026 41.2321C197.175 41.6372 197.41 42.0054 197.714 42.3117C198.795 43.3433 200.371 43.6659 202.169 43.9542L202.014 44.9197C201.059 44.7933 200.117 44.5815 199.2 44.287Z" fill="#2F2E41"/>
<path d="M190.234 27.5459L190.105 28.5154L195.331 29.205L195.459 28.2356L190.234 27.5459Z" fill="#2F2E41"/>
<path d="M206.726 29.7211L206.598 30.6906L211.823 31.3803L211.951 30.4108L206.726 29.7211Z" fill="#2F2E41"/>
<path d="M191.465 142.807H191.465C190.362 142.805 189.305 142.367 188.525 141.588C187.745 140.809 187.307 139.752 187.306 138.65C187.306 138.65 193.936 102.696 197.725 81.6234C198.461 77.5257 200.615 73.8171 203.811 71.146C207.006 68.4749 211.039 67.0113 215.205 67.0112H215.205C221.172 67.0112 226.894 69.38 231.113 73.5967C235.332 77.8133 237.702 83.5323 237.702 89.4955V96.5959C237.702 108.852 232.831 120.606 224.16 129.272C215.488 137.938 203.728 142.807 191.465 142.807Z" fill="#2F2E41"/>
<path d="M222.948 139.207C222.692 139.765 222.28 140.237 221.762 140.567C221.244 140.896 220.642 141.069 220.028 141.064L212.806 141.002C212.389 140.998 211.976 140.912 211.591 140.749C211.207 140.586 210.858 140.349 210.565 140.051C210.273 139.753 210.042 139.401 209.885 139.014C209.729 138.627 209.65 138.213 209.654 137.796L210.144 81.2521C210.151 80.3606 210.334 79.4791 210.683 78.6582C211.031 77.8373 211.537 77.093 212.173 76.4678C212.81 75.8427 213.563 75.3489 214.39 75.0147C215.217 74.6806 216.102 74.5126 216.994 74.5203C217.886 74.528 218.768 74.7113 219.589 75.0598C220.41 75.4082 221.155 75.915 221.78 76.5511C222.405 77.1872 222.899 77.9401 223.233 78.767C223.566 79.5938 223.734 80.4782 223.726 81.3698L223.236 137.913C223.232 138.36 223.134 138.801 222.948 139.207Z" fill="#7ACEFA"/>
<path d="M226.138 124.113C225.882 124.671 225.47 125.143 224.952 125.472C224.434 125.801 223.832 125.974 223.218 125.969L210.883 125.863C210.04 125.854 209.235 125.512 208.644 124.911C208.053 124.31 207.724 123.499 207.731 122.657L208.134 76.2263C208.137 75.8089 208.223 75.3962 208.386 75.012C208.549 74.6277 208.787 74.2794 209.084 73.9868C209.382 73.6942 209.735 73.4631 210.122 73.3067C210.509 73.1504 210.924 73.0717 211.341 73.0754L223.676 73.1822C224.093 73.1858 224.506 73.2716 224.891 73.4347C225.275 73.5978 225.624 73.8349 225.917 74.1326C226.209 74.4303 226.441 74.7828 226.597 75.1698C226.753 75.5568 226.832 75.9708 226.828 76.3882L226.426 122.819C226.422 123.265 226.324 123.707 226.138 124.113Z" fill="#2F2E41"/>
<path d="M205.504 21.0763C201.616 21.7359 197.274 22.4902 193.569 20.688C190.652 19.2694 188.647 16.4363 189.357 13.1075C190.771 6.48268 198.36 3.55378 204.458 4.14485C208.045 4.47951 211.418 5.99931 214.043 8.46399C214.168 8.58192 214.324 8.66129 214.492 8.69249C214.661 8.7237 214.835 8.7054 214.993 8.6398C215.152 8.57421 215.288 8.46414 215.385 8.3229C215.482 8.18166 215.536 8.0153 215.541 7.84396C215.515 5.39938 217.345 3.35948 219.513 2.43864C222.228 1.28571 225.383 1.69771 228.173 2.31469C235.807 4.01627 242.74 8.0043 248.048 13.7466C253.355 19.4889 256.784 26.7122 257.876 34.4528C258.654 39.902 258.237 45.4549 256.655 50.7274C255.175 55.5875 252.441 60.4724 247.94 63.1167C243.885 65.4994 237.987 66.113 234.244 62.7701C231.246 60.0924 229.895 55.0865 232.355 51.6223C233.079 50.6177 234.063 49.8278 235.2 49.3363C236.337 48.8448 237.587 48.6702 238.815 48.8307C239.977 49.0143 241.062 49.5272 241.941 50.3086C242.82 51.09 243.457 52.107 243.775 53.2391C244.008 54.326 243.936 55.4563 243.567 56.505C243.197 57.5536 242.545 58.4796 241.681 59.1806C241.036 59.6441 240.303 59.9714 239.527 60.1425C238.751 60.3137 237.948 60.3252 237.167 60.1762C236.387 60.0273 235.645 59.7211 234.986 59.2762C234.328 58.8314 233.767 58.2572 233.338 57.5887C232.742 56.633 231.223 57.5124 231.823 58.4739C232.511 59.5501 233.455 60.4401 234.569 61.065C235.684 61.6899 236.936 62.0305 238.214 62.0565C239.487 62.0798 240.744 61.7642 241.856 61.1421C242.967 60.52 243.893 59.6139 244.539 58.5164C245.231 57.3964 245.616 56.114 245.655 54.7981C245.694 53.4822 245.386 52.1792 244.761 51.0203C244.077 49.8384 243.104 48.8502 241.932 48.1489C240.76 47.4476 239.429 47.0565 238.064 47.0125C236.648 47.0014 235.25 47.3346 233.991 47.9835C232.733 48.6324 231.651 49.5775 230.84 50.7372C229.526 52.7439 229.042 55.1811 229.488 57.5371C229.883 59.9333 231.044 62.1373 232.796 63.8198C234.825 65.6549 237.436 66.7163 240.17 66.8171C246.119 67.1563 251.431 63.7307 254.712 58.9691C258.117 54.0282 259.64 47.8281 259.947 41.9005C260.259 35.859 259.205 29.8247 256.861 24.247C254.517 18.6693 250.944 13.6917 246.409 9.68477C242.096 5.91173 237.037 3.08692 231.561 1.39351C226.141 -0.265975 218.572 -1.47561 214.912 4.05963C214.167 5.18052 213.775 6.49853 213.786 7.844L215.284 7.22398C209.988 2.16595 201.662 0.887861 195.049 3.99698C191.727 5.55859 188.848 8.4624 187.815 12.0428C186.744 15.7577 188.293 19.4039 191.47 21.5108C195.794 24.3781 201.156 23.5841 205.971 22.7674C207.082 22.5789 206.611 20.8887 205.504 21.0763V21.0763Z" fill="#2F2E41"/>
<path d="M150.633 128.87H8.54484C6.2794 128.868 4.10748 127.967 2.50558 126.366C0.903668 124.765 0.00258464 122.595 0 120.331V35.4201C0.00258464 33.156 0.903668 30.9854 2.50558 29.3844C4.10748 27.7834 6.2794 26.8829 8.54484 26.8803H150.633C152.899 26.8829 155.071 27.7834 156.673 29.3844C158.274 30.9854 159.176 33.156 159.178 35.4201V120.331C159.176 122.595 158.274 124.765 156.673 126.366C155.071 127.967 152.899 128.868 150.633 128.87ZM8.54484 28.3443C6.66777 28.3464 4.86819 29.0926 3.5409 30.4191C2.21361 31.7456 1.46699 33.5441 1.46483 35.4201V120.331C1.46699 122.206 2.21361 124.005 3.5409 125.332C4.86819 126.658 6.66777 127.404 8.54484 127.406H150.633C152.51 127.404 154.31 126.658 155.637 125.332C156.965 124.005 157.711 122.206 157.713 120.331V35.4201C157.711 33.5441 156.965 31.7456 155.637 30.4191C154.31 29.0926 152.51 28.3464 150.633 28.3443H8.54484Z" fill="#3F3D56"/>
<path d="M27.5876 46.8879C26.3804 46.8879 25.2004 46.5301 24.1967 45.8599C23.193 45.1896 22.4107 44.2369 21.9487 43.1223C21.4868 42.0077 21.3659 40.7812 21.6014 39.598C21.8369 38.4147 22.4182 37.3278 23.2718 36.4747C24.1254 35.6217 25.2129 35.0407 26.3969 34.8053C27.5808 34.57 28.808 34.6908 29.9233 35.1525C31.0385 35.6141 31.9918 36.396 32.6624 37.3991C33.3331 38.4022 33.691 39.5816 33.691 40.788C33.6892 42.4052 33.0456 43.9557 31.9014 45.0993C30.7571 46.2428 29.2058 46.8861 27.5876 46.8879ZM27.5876 36.1521C26.6702 36.1521 25.7733 36.424 25.0105 36.9334C24.2477 37.4428 23.6531 38.1668 23.3021 39.0139C22.951 39.861 22.8591 40.7932 23.0381 41.6924C23.2171 42.5917 23.6589 43.4178 24.3076 44.0661C24.9563 44.7144 25.7828 45.156 26.6826 45.3349C27.5824 45.5137 28.5151 45.4219 29.3627 45.071C30.2103 44.7202 30.9348 44.126 31.4445 43.3636C31.9542 42.6012 32.2262 41.7049 32.2262 40.788C32.2248 39.5589 31.7357 38.3806 30.8661 37.5115C29.9964 36.6424 28.8174 36.1535 27.5876 36.1521Z" fill="#3F3D56"/>
<path d="M130.614 46.8879C129.407 46.8879 128.227 46.5301 127.223 45.8599C126.219 45.1896 125.437 44.2369 124.975 43.1223C124.513 42.0077 124.392 40.7812 124.628 39.598C124.863 38.4147 125.445 37.3278 126.298 36.4747C127.152 35.6217 128.239 35.0407 129.423 34.8053C130.607 34.57 131.834 34.6908 132.95 35.1525C134.065 35.6141 135.018 36.396 135.689 37.3991C136.359 38.4022 136.717 39.5816 136.717 40.788C136.716 42.4052 136.072 43.9557 134.928 45.0993C133.784 46.2428 132.232 46.8861 130.614 46.8879ZM130.614 36.1521C129.697 36.1521 128.8 36.424 128.037 36.9334C127.274 37.4428 126.68 38.1668 126.328 39.0139C125.977 39.861 125.885 40.7932 126.064 41.6924C126.243 42.5917 126.685 43.4178 127.334 44.0661C127.983 44.7144 128.809 45.156 129.709 45.3349C130.609 45.5137 131.541 45.4219 132.389 45.071C133.237 44.7202 133.961 44.126 134.471 43.3636C134.981 42.6012 135.253 41.7049 135.253 40.788C135.251 39.5589 134.762 38.3806 133.892 37.5115C133.023 36.6424 131.844 36.1535 130.614 36.1521Z" fill="#3F3D56"/>
<path d="M41.9918 83.9752H15.6248C14.5245 83.9739 13.4696 83.5364 12.6915 82.7588C11.9135 81.9812 11.4758 80.927 11.4745 79.8273V64.2116C11.4758 63.1119 11.9135 62.0576 12.6915 61.28C13.4696 60.5024 14.5245 60.065 15.6248 60.0636H41.9918C43.0921 60.065 44.147 60.5024 44.9251 61.28C45.7031 62.0576 46.1408 63.1119 46.1421 64.2116V79.8273C46.1408 80.927 45.7031 81.9812 44.9251 82.7588C44.147 83.5364 43.0921 83.9739 41.9918 83.9752Z" fill="#E6E6E6"/>
<path d="M92.7725 83.9752H66.4056C65.3053 83.9739 64.2504 83.5364 63.4723 82.7588C62.6942 81.9812 62.2566 80.927 62.2552 79.8273V64.2116C62.2566 63.1119 62.6942 62.0576 63.4723 61.28C64.2504 60.5024 65.3053 60.065 66.4056 60.0636H92.7725C93.8729 60.065 94.9278 60.5024 95.7058 61.28C96.4839 62.0576 96.9216 63.1119 96.9229 64.2116V79.8273C96.9216 80.927 96.4839 81.9812 95.7058 82.7588C94.9278 83.5364 93.8729 83.9739 92.7725 83.9752Z" fill="#E6E6E6"/>
<path d="M117.186 60.5516C116.215 60.5527 115.285 60.9386 114.598 61.6248C113.912 62.3109 113.525 63.2412 113.524 64.2116V79.8273C113.525 80.7976 113.912 81.7279 114.598 82.4141C115.285 83.1002 116.215 83.4861 117.186 83.4872H143.553C144.524 83.4861 145.455 83.1002 146.142 82.4141C146.828 81.7279 147.214 80.7976 147.215 79.8273V64.2116C147.214 63.2412 146.828 62.3109 146.142 61.6248C145.455 60.9386 144.524 60.5527 143.553 60.5516H117.186Z" fill="#E6E6E6"/>
<path d="M42.2359 115.207H15.869C14.7686 115.205 13.7137 114.768 12.9357 113.99C12.1576 113.213 11.7199 112.158 11.7186 111.059V95.443C11.7199 94.3433 12.1576 93.289 12.9357 92.5114C13.7137 91.7338 14.7686 91.2964 15.869 91.2951H42.2359C43.3362 91.2964 44.3911 91.7338 45.1692 92.5114C45.9473 93.289 46.3849 94.3433 46.3863 95.443V111.059C46.385 112.158 45.9473 113.213 45.1692 113.99C44.3911 114.768 43.3363 115.205 42.2359 115.207Z" fill="#E6E6E6"/>
<path d="M93.0167 115.207H66.6497C65.5494 115.205 64.4945 114.768 63.7164 113.99C62.9384 113.213 62.5007 112.158 62.4994 111.059V95.443C62.5007 94.3433 62.9384 93.289 63.7164 92.5114C64.4945 91.7338 65.5494 91.2964 66.6497 91.2951H93.0167C94.117 91.2964 95.1719 91.7338 95.95 92.5114C96.728 93.289 97.1657 94.3433 97.167 95.443V111.059C97.1657 112.158 96.728 113.213 95.95 113.99C95.1719 114.768 94.117 115.205 93.0167 115.207Z" fill="#E6E6E6"/>
<path d="M143.797 115.207H117.43C116.33 115.205 115.275 114.768 114.497 113.99C113.719 113.213 113.281 112.158 113.28 111.059V95.443C113.281 94.3433 113.719 93.289 114.497 92.5114C115.275 91.7338 116.33 91.2964 117.43 91.2951H143.797C144.898 91.2964 145.953 91.7338 146.731 92.5114C147.509 93.289 147.946 94.3433 147.948 95.443V111.059C147.946 112.158 147.509 113.213 146.731 113.99C145.953 114.768 144.898 115.205 143.797 115.207Z" fill="#E6E6E6"/>
<path d="M27.5876 42.496C27.1346 42.4954 26.7002 42.3153 26.3798 41.9951C26.0594 41.6749 25.8792 41.2408 25.8787 40.788V16.3885C25.8787 15.9355 26.0587 15.5011 26.3792 15.1808C26.6997 14.8605 27.1344 14.6805 27.5876 14.6805C28.0409 14.6805 28.4755 14.8605 28.796 15.1808C29.1165 15.5011 29.2966 15.9355 29.2966 16.3885V40.788C29.296 41.2408 29.1158 41.6749 28.7954 41.9951C28.4751 42.3153 28.0407 42.4954 27.5876 42.496Z" fill="#3F3D56"/>
<path d="M130.614 42.496C130.161 42.4954 129.726 42.3153 129.406 41.9951C129.086 41.6749 128.906 41.2408 128.905 40.788V16.3885C128.905 15.9355 129.085 15.5011 129.406 15.1808C129.726 14.8605 130.161 14.6805 130.614 14.6805C131.067 14.6805 131.502 14.8605 131.822 15.1808C132.143 15.5011 132.323 15.9355 132.323 16.3885V40.788C132.322 41.2408 132.142 41.6749 131.822 41.9951C131.501 42.3153 131.067 42.4954 130.614 42.496Z" fill="#3F3D56"/>
<path d="M27.8116 78.3493C27.0927 78.3505 26.3929 78.118 25.8177 77.687L25.7821 77.6603L18.272 71.9187C17.5696 71.3805 17.1098 70.5854 16.9939 69.7084C16.878 68.8314 17.1154 67.9443 17.654 67.2423C18.1925 66.5402 18.988 66.0807 19.8655 65.9649C20.743 65.8491 21.6307 66.0864 22.3331 66.6246L27.1975 70.3526L38.6923 55.3651C38.9589 55.0176 39.2913 54.726 39.6706 54.507C40.0499 54.2879 40.4687 54.1456 40.903 54.0883C41.3373 54.0309 41.7786 54.0597 42.2019 54.1728C42.6251 54.2859 43.0218 54.4813 43.3695 54.7477L43.3705 54.7484L43.2992 54.8474L43.3724 54.7484C44.0739 55.2872 44.5328 56.082 44.6484 56.9586C44.7641 57.8351 44.5272 58.7217 43.9895 59.4238L30.4691 77.0446C30.1563 77.4506 29.7541 77.7791 29.2937 78.0047C28.8334 78.2302 28.3272 78.3468 27.8145 78.3453L27.8116 78.3493Z" fill="#7ACEFA"/>
<path d="M80.0571 109.093C79.3382 109.094 78.6384 108.861 78.0632 108.43L78.0276 108.404L70.5176 102.662C69.8151 102.124 69.3554 101.329 69.2394 100.452C69.1235 99.5748 69.361 98.6877 69.8995 97.9857C70.438 97.2836 71.2336 96.8242 72.1111 96.7083C72.9886 96.5925 73.8762 96.8298 74.5787 97.368L79.443 101.096L90.9379 86.1085C91.2044 85.7611 91.5368 85.4694 91.9161 85.2504C92.2954 85.0313 92.7142 84.889 93.1485 84.8317C93.5828 84.7744 94.0242 84.8031 94.4474 84.9162C94.8706 85.0294 95.2674 85.2247 95.615 85.4911L95.616 85.4918L95.5447 85.5908L95.618 85.4918C96.3194 86.0306 96.7783 86.8255 96.894 87.702C97.0097 88.5785 96.7727 89.4651 96.235 90.1673L82.7146 107.788C82.4018 108.194 81.9996 108.523 81.5393 108.748C81.0789 108.974 80.5728 109.09 80.0601 109.089L80.0571 109.093Z" fill="#7ACEFA"/>
<path d="M129.373 78.3493C128.654 78.3505 127.954 78.118 127.379 77.687L127.344 77.6603L119.833 71.9187C119.131 71.3805 118.671 70.5854 118.555 69.7084C118.439 68.8314 118.677 67.9443 119.215 67.2423C119.754 66.5402 120.549 66.0807 121.427 65.9649C122.305 65.8491 123.192 66.0864 123.895 66.6246L128.759 70.3526L140.254 55.3651C140.52 55.0176 140.853 54.726 141.232 54.507C141.611 54.2879 142.03 54.1456 142.464 54.0883C142.899 54.0309 143.34 54.0597 143.763 54.1728C144.187 54.2859 144.583 54.4813 144.931 54.7477L144.932 54.7484L144.861 54.8474L144.934 54.7484C145.635 55.2872 146.094 56.082 146.21 56.9586C146.326 57.8351 146.089 58.7217 145.551 59.4238L132.031 77.0446C131.718 77.4506 131.316 77.7791 130.855 78.0047C130.395 78.2302 129.889 78.3468 129.376 78.3453L129.373 78.3493Z" fill="#7ACEFA"/>
</g>
<defs>
<clipPath id="clip0_6_162">
<rect width="260" height="190" fill="white"/>
</clipPath>
</defs>
</svg>
