<svg width="147" height="147" viewBox="0 0 147 147" fill="none" xmlns="http://www.w3.org/2000/svg">
<g clip-path="url(#clip0_2_139)">
<path d="M84.3685 118.41H62.6315L65.6381 141.737C66.026 144.746 68.5884 147 71.6232 147H75.3768C78.4116 147 80.974 144.746 81.3619 141.737L84.3685 118.41Z" fill="#A3DEFE"/>
<path d="M65.1862 138.231C67.8761 138.833 70.6636 139.145 73.5 139.145C76.3363 139.145 79.1239 138.834 81.8138 138.231L84.3685 118.41H62.6315L65.1862 138.231Z" fill="#7ACEFA"/>
<path d="M73.5 130.272C87.5642 130.272 98.9655 120.311 98.9655 108.025C98.9655 95.7384 87.5642 85.7782 73.5 85.7782C59.4358 85.7782 48.0345 95.7384 48.0345 108.025C48.0345 120.311 59.4358 130.272 73.5 130.272Z" fill="#F6EE86"/>
<path d="M123.814 33.3084C123.814 33.2852 123.816 33.2625 123.816 33.2392C123.816 14.8817 108.934 0 90.5767 0C87.0277 0 83.6097 0.557279 80.4035 1.588C76.2959 2.90899 73.5 6.71635 73.5 11.0313C73.5 6.71635 70.7041 2.9087 66.5964 1.588C63.3903 0.557279 59.972 0 56.4233 0C38.0658 0 23.1841 14.8817 23.1841 33.2392C23.1841 33.2625 23.1858 33.2852 23.1858 33.3084C10.9592 39.6303 2.59631 52.3828 2.59631 67.0966C2.59631 86.7742 17.5438 102.96 36.7038 104.921C41.9329 112.543 50.7035 117.545 60.6452 117.545C62.8583 117.545 65.0125 117.297 67.0828 116.826C70.8313 115.974 73.5 112.655 73.5 108.811C73.5 112.655 76.1687 115.974 79.9172 116.826C81.9875 117.297 84.142 117.545 86.3547 117.545C96.2965 117.545 105.067 112.543 110.296 104.921C129.456 102.96 144.404 86.7742 144.404 67.0966C144.404 52.3828 136.041 39.6303 123.814 33.3084Z" fill="#A3DEFE"/>
<path d="M39.3923 62.4787C33.9363 55.8 32.9751 44.1333 34.166 29.6248C32.0853 27.0457 30.0537 16.7537 37.9113 5.62907C29.0293 11.5961 23.1841 21.7348 23.1841 33.2392C23.1841 33.2625 23.1858 33.2852 23.1858 33.3084C10.9592 39.6303 2.59631 52.3828 2.59631 67.0966C2.59631 86.7742 17.5438 102.96 36.7038 104.921C41.9329 112.543 50.7035 117.545 60.6452 117.545C62.8583 117.545 65.0125 117.297 67.0828 116.826C68.33 116.543 69.4535 115.982 70.4029 115.224C41.9699 112.252 35.6725 79.0613 40.1959 67.4968C40.8582 65.804 40.5421 63.8864 39.3923 62.4787Z" fill="#7ACEFA"/>
<path d="M23.1875 35.4623C22.408 35.4623 21.6558 35.0377 21.2731 34.2972C20.727 33.241 21.1404 31.9418 22.197 31.3957C27.942 28.4253 34.1407 26.9191 40.6205 26.9191C41.81 26.9191 42.7738 27.8829 42.7738 29.0724C42.7738 30.2619 41.81 31.2257 40.6205 31.2257C34.8358 31.2257 29.3023 32.57 24.1749 35.2211C23.8588 35.3845 23.5205 35.4623 23.1875 35.4623Z" fill="#A3DEFE"/>
<path d="M36.7058 107.074C36.0196 107.074 35.3455 106.747 34.9283 106.139C31.3607 100.938 29.4752 94.8489 29.4752 88.5285C29.4752 87.339 30.439 86.3751 31.6285 86.3751C32.818 86.3751 33.7819 87.339 33.7819 88.5285C33.7819 93.9752 35.4063 99.2224 38.4795 103.703C39.1522 104.683 38.9027 106.024 37.922 106.696C37.5496 106.952 37.1255 107.074 36.7058 107.074Z" fill="#A3DEFE"/>
<path d="M123.813 35.4623C123.479 35.4623 123.142 35.3845 122.825 35.2211C117.698 32.57 112.164 31.2257 106.38 31.2257C105.19 31.2257 104.226 30.2619 104.226 29.0724C104.226 27.8829 105.19 26.9191 106.38 26.9191C112.859 26.9191 119.058 28.4253 124.803 31.3957C125.86 31.9418 126.273 33.2412 125.727 34.2972C125.344 35.0374 124.592 35.4623 123.813 35.4623Z" fill="#7ACEFA"/>
<path d="M110.294 107.074C109.875 107.074 109.45 106.952 109.078 106.696C108.098 106.024 107.848 104.683 108.521 103.703C111.594 99.2224 113.218 93.9752 113.218 88.5285C113.218 87.339 114.182 86.3751 115.372 86.3751C116.561 86.3751 117.525 87.339 117.525 88.5285C117.525 94.8489 115.64 100.938 112.072 106.139C111.655 106.747 110.98 107.074 110.294 107.074Z" fill="#7ACEFA"/>
<path d="M129.608 68.5405C129.057 68.5405 128.506 68.3303 128.085 67.91C125.397 65.2215 121.823 63.7409 118.02 63.7409C116.831 63.7409 115.867 62.777 115.867 61.5875C115.867 60.3981 116.831 59.4342 118.02 59.4342C122.973 59.4342 127.629 61.3627 131.131 64.8646C131.972 65.7058 131.972 67.069 131.131 67.91C130.71 68.33 130.159 68.5405 129.608 68.5405Z" fill="#7ACEFA"/>
<path d="M17.3919 68.5405C16.841 68.5405 16.2897 68.3303 15.8691 67.91C15.0282 67.0688 15.0282 65.7056 15.8691 64.8646C19.371 61.3627 24.027 59.4342 28.9794 59.4342C30.1689 59.4342 31.1327 60.3981 31.1327 61.5875C31.1327 62.777 30.1689 63.7409 28.9794 63.7409C25.1775 63.7409 21.603 65.2215 18.9145 67.91C18.4942 68.33 17.9429 68.5405 17.3919 68.5405Z" fill="#A3DEFE"/>
<path d="M110.616 39.3073H103.699C98.8552 39.3073 94.9287 43.2341 94.9287 48.0779V57.4575C94.9287 61.5298 91.8035 64.9209 87.7443 65.2522L80.6628 65.8305V49.9476H82.1221C83.9203 49.9476 85.378 48.4899 85.378 46.6917V42.5631C85.378 40.7649 83.9203 39.3073 82.1221 39.3073H64.8778C63.0796 39.3073 61.622 40.7649 61.622 42.5631V46.6917C61.622 48.4899 63.0796 49.9476 64.8778 49.9476H66.3374V65.8305L59.2559 65.2522C55.197 64.9209 52.0716 61.5298 52.0716 57.4575V48.0779C52.0716 43.2341 48.1448 39.3073 43.3009 39.3073H36.3845C35.0629 39.3073 33.9917 40.3785 33.9917 41.7001V43.8155C33.9917 45.137 35.0629 46.2082 36.3845 46.2082H37.7106C39.0468 46.2082 40.1301 47.2915 40.1301 48.6277V60.5792C40.1301 68.2 45.9656 74.5514 53.5591 75.1954L66.3377 76.2789V88.8945H64.8781C63.0799 88.8945 61.6222 90.3522 61.6222 92.1503V96.279C61.6222 98.0771 63.0799 99.5348 64.8781 99.5348H82.1224C83.9206 99.5348 85.3783 98.0771 85.3783 96.279V92.1503C85.3783 90.3522 83.9206 88.8945 82.1224 88.8945H80.6631V76.2789L93.4417 75.1954C101.035 74.5514 106.871 68.2002 106.871 60.5792V48.6277C106.871 47.2915 107.954 46.2082 109.29 46.2082H110.616C111.938 46.2082 113.009 45.137 113.009 43.8155V41.7001C113.009 40.3788 111.937 39.3073 110.616 39.3073Z" fill="white"/>
<path d="M51.8327 33.3084C56.2482 33.3084 59.8276 30.458 59.8276 26.9418C59.8276 23.4256 56.2482 20.5751 51.8327 20.5751C47.4173 20.5751 43.8379 23.4256 43.8379 26.9418C43.8379 30.458 47.4173 33.3084 51.8327 33.3084Z" fill="white"/>
<path d="M95.1673 33.3084C99.5828 33.3084 103.162 30.458 103.162 26.9418C103.162 23.4256 99.5828 20.5751 95.1673 20.5751C90.7519 20.5751 87.1725 23.4256 87.1725 26.9418C87.1725 30.458 90.7519 33.3084 95.1673 33.3084Z" fill="white"/>
<path d="M56.492 22.6626C54.2884 22.6626 52.1934 21.7085 50.7438 20.0444C49.9623 19.1481 50.0559 17.7878 50.9525 17.0065C51.8489 16.225 53.2092 16.3186 53.9904 17.2155C54.6221 17.9402 55.5339 18.3562 56.492 18.3562C57.4501 18.3562 58.3619 17.9405 58.9942 17.2153C59.7754 16.3189 61.1354 16.225 62.0321 17.0068C62.9287 17.788 63.0217 19.1484 62.2405 20.0447C60.7903 21.7082 58.6953 22.6626 56.492 22.6626Z" fill="#4E5660"/>
<path d="M90.5081 22.6621C88.3048 22.6621 86.2095 21.708 84.7599 20.0442C83.9784 19.1479 84.0717 17.7876 84.9683 17.0063C85.8647 16.2243 87.225 16.3179 88.0062 17.2148C88.6385 17.9397 89.5503 18.3558 90.5084 18.3558C91.4662 18.3558 92.3781 17.94 93.0103 17.2148C93.7912 16.3184 95.1515 16.2245 96.0482 17.0063C96.9448 17.7876 97.0378 19.1479 96.2566 20.0442C94.8064 21.7078 92.7111 22.6621 90.5081 22.6621Z" fill="#4E5660"/>
<path d="M76.6895 24.2602C76.6895 22.3816 75.2614 20.8588 73.5 20.8588C71.7386 20.8588 70.3105 22.3816 70.3105 24.2602C70.3105 26.1387 71.7386 27.6615 73.5 27.6615C75.2614 27.6615 76.6895 26.1387 76.6895 24.2602Z" fill="#4E5660"/>
</g>
<defs>
<clipPath id="clip0_2_139">
<rect width="147" height="147" fill="white"/>
</clipPath>
</defs>
</svg>
